{"asset":{"version":"2.0","generator":"SE34 procedural lathe bottle builder; baked transforms"},"scene":0,"scenes":[{"name":"SE34 Ankang Selenium Valley","nodes":[0,1,2,3,4,5,6]}],"nodes":[{"name":"cylinder","mesh":0},{"name":"cylinder_1","mesh":1},{"name":"Tab","mesh":2},{"name":"BadgeInset","mesh":3},{"name":"MountainCrystal","mesh":4},{"name":"BadgeDecal","mesh":5},{"name":"WordmarkDecal","mesh":6}],"meshes":[{"name":"cylinder","primitives":[{"attributes":{"POSITION":0,"NORMAL":1,"TEXCOORD_0":2},"indices":3,"material":0,"mode":4}]},{"name":"cylinder_1","primitives":[{"attributes":{"POSITION":4,"NORMAL":5,"TEXCOORD_0":6},"indices":7,"material":1,"mode":4}]},{"name":"Tab","primitives":[{"attributes":{"POSITION":8,"NORMAL":9,"TEXCOORD_0":10},"indices":11,"material":0,"mode":4}]},{"name":"BadgeInset","primitives":[{"attributes":{"POSITION":12,"NORMAL":13,"TEXCOORD_0":14},"indices":15,"material":2,"mode":4}]},{"name":"MountainCrystal","primitives":[{"attributes":{"POSITION":16,"NORMAL":17,"TEXCOORD_0":18},"indices":19,"material":3,"mode":4}]},{"name":"BadgeDecal","primitives":[{"attributes":{"POSITION":20,"NORMAL":21,"TEXCOORD_0":22},"indices":23,"material":4,"mode":4}]},{"name":"WordmarkDecal","primitives":[{"attributes":{"POSITION":24,"NORMAL":25,"TEXCOORD_0":26},"indices":27,"material":4,"mode":4}]}],"materials":[{"name":"Polished Silver","pbrMetallicRoughness":{"baseColorFactor":[0.88,0.91,0.94,1],"metallicFactor":1,"roughnessFactor":0.17}},{"name":"Clear Bottle Glass","pbrMetallicRoughness":{"baseColorFactor":[0.96,0.985,1,1],"metallicFactor":0,"roughnessFactor":0.065},"extensions":{"KHR_materials_transmission":{"transmissionFactor":0.96},"KHR_materials_ior":{"ior":1.46},"KHR_materials_volume":{"thicknessFactor":0.35,"attenuationColor":[0.9,0.96,1],"attenuationDistance":3}}},{"name":"Badge Inset","pbrMetallicRoughness":{"baseColorFactor":[0.075,0.1,0.125,1],"metallicFactor":0.86,"roughnessFactor":0.2}},{"name":"Mountain Crystal","pbrMetallicRoughness":{"baseColorFactor":[0.63,0.71,0.76,1],"metallicFactor":0.15,"roughnessFactor":0.18},"extensions":{"KHR_materials_transmission":{"transmissionFactor":0.42},"KHR_materials_ior":{"ior":1.46},"KHR_materials_volume":{"thicknessFactor":0.1,"attenuationColor":[0.84,0.93,1],"attenuationDistance":1}}},{"name":"Decal Placeholder Hidden","pbrMetallicRoughness":{"baseColorFactor":[1,1,1,0],"metallicFactor":0,"roughnessFactor":1},"alphaMode":"BLEND"}],"buffers":[{"uri":"SE34-bottle.bin","byteLength":2724192}],"bufferViews":[{"buffer":0,"byteOffset":0,"byteLength":128484,"target":34962},{"buffer":0,"byteOffset":128484,"byteLength":128484,"target":34962},{"buffer":0,"byteOffset":256968,"byteLength":85656,"target":34962},{"buffer":0,"byteOffset":342624,"byteLength":248832,"target":34963},{"buffer":0,"byteOffset":591456,"byteLength":295668,"target":34962},{"buffer":0,"byteOffset":887124,"byteLength":295668,"target":34962},{"buffer":0,"byteOffset":1182792,"byteLength":197112,"target":34962},{"buffer":0,"byteOffset":1379904,"byteLength":583680,"target":34963},{"buffer":0,"byteOffset":1963584,"byteLength":72756,"target":34962},{"buffer":0,"byteOffset":2036340,"byteLength":72756,"target":34962},{"buffer":0,"byteOffset":2109096,"byteLength":48504,"target":34962},{"buffer":0,"byteOffset":2157600,"byteLength":135168,"target":34963},{"buffer":0,"byteOffset":2292768,"byteLength":26316,"target":34962},{"buffer":0,"byteOffset":2319084,"byteLength":26316,"target":34962},{"buffer":0,"byteOffset":2345400,"byteLength":17544,"target":34962},{"buffer":0,"byteOffset":2362944,"byteLength":49152,"target":34963},{"buffer":0,"byteOffset":2412096,"byteLength":59040,"target":34962},{"buffer":0,"byteOffset":2471136,"byteLength":59040,"target":34962},{"buffer":0,"byteOffset":2530176,"byteLength":39360,"target":34962},{"buffer":0,"byteOffset":2569536,"byteLength":19680,"target":34963},{"buffer":0,"byteOffset":2589216,"byteLength":26316,"target":34962},{"buffer":0,"byteOffset":2615532,"byteLength":26316,"target":34962},{"buffer":0,"byteOffset":2641848,"byteLength":17544,"target":34962},{"buffer":0,"byteOffset":2659392,"byteLength":49152,"target":34963},{"buffer":0,"byteOffset":2708544,"byteLength":3564,"target":34962},{"buffer":0,"byteOffset":2712108,"byteLength":3564,"target":34962},{"buffer":0,"byteOffset":2715672,"byteLength":2376,"target":34962},{"buffer":0,"byteOffset":2718048,"byteLength":6144,"target":34963}],"accessors":[{"bufferView":0,"componentType":5126,"count":10707,"type":"VEC3","min":[-0.047684,0.3347,-0.047684],"max":[0.047684,0.45712640000000004,0.047684]},{"bufferView":1,"componentType":5126,"count":10707,"type":"VEC3","min":[-1.0,-1.0,-1.0],"max":[1.0,1.0,1.0]},{"bufferView":2,"componentType":5126,"count":10707,"type":"VEC2"},{"bufferView":3,"componentType":5125,"count":62208,"type":"SCALAR"},{"bufferView":4,"componentType":5126,"count":24639,"type":"VEC3","min":[-0.11529600000000001,-0.45036,-0.11529600000000001],"max":[0.11529600000000001,0.34615999999999997,0.11529600000000001]},{"bufferView":5,"componentType":5126,"count":24639,"type":"VEC3","min":[-0.9999688380217608,-1.0,-0.9999688380217608],"max":[0.9999688380217608,1.0,0.9999688380217608]},{"bufferView":6,"componentType":5126,"count":24639,"type":"VEC2"},{"bufferView":7,"componentType":5125,"count":145920,"type":"SCALAR"},{"bufferView":8,"componentType":5126,"count":6063,"type":"VEC3","min":[-0.0484,-0.4479,-0.11046613296110105],"max":[0.0484,0.022,0.0484]},{"bufferView":9,"componentType":5126,"count":6063,"type":"VEC3","min":[-1.0,-1.0,-1.0],"max":[1.0,1.0,1.0]},{"bufferView":10,"componentType":5126,"count":6063,"type":"VEC2"},{"bufferView":11,"componentType":5125,"count":33792,"type":"SCALAR"},{"bufferView":12,"componentType":5126,"count":2193,"type":"VEC3","min":[-0.0218,-0.0268,-0.107316125],"max":[0.0218,0.0168,-0.100103]},{"bufferView":13,"componentType":5126,"count":2193,"type":"VEC3","min":[-0.17817772522936443,-0.018483080588525835,-0.9999901009381682],"max":[0.17817772522936443,0.3290766721102546,-0.9443032054763131]},{"bufferView":14,"componentType":5126,"count":2193,"type":"VEC2"},{"bufferView":15,"componentType":5125,"count":12288,"type":"SCALAR"},{"bufferView":16,"componentType":5126,"count":4920,"type":"VEC3","min":[-0.08972727272727272,-0.319,-0.05446153846153846],"max":[0.08972727272727274,-0.23611594492203253,0.054461538461538464]},{"bufferView":17,"componentType":5126,"count":4920,"type":"VEC3","min":[-0.9590549206830167,0.18012988738589006,-0.9693218214023164],"max":[0.9762703858804358,0.9993293798202646,0.9592198696750726]},{"bufferView":18,"componentType":5126,"count":4920,"type":"VEC2"},{"bufferView":19,"componentType":5125,"count":4920,"type":"SCALAR"},{"bufferView":20,"componentType":5126,"count":2193,"type":"VEC3","min":[-0.0198,-0.024800000000000003,-0.109167],"max":[0.0198,0.0148,-0.10263299999999999]},{"bufferView":21,"componentType":5126,"count":2193,"type":"VEC3","min":[-0.07947782839343402,0.08389510825504157,-0.9964745911516636],"max":[0.07947782839343402,0.23870244678374913,-0.9710927565889117]},{"bufferView":22,"componentType":5126,"count":2193,"type":"VEC2"},{"bufferView":23,"componentType":5125,"count":12288,"type":"SCALAR"},{"bufferView":24,"componentType":5126,"count":297,"type":"VEC3","min":[-0.0365,-0.212,-0.1163],"max":[0.0365,-0.164,-0.11032649446103011]},{"bufferView":25,"componentType":5126,"count":297,"type":"VEC3","min":[-0.3140932974164924,0.0,-1.0],"max":[0.3140932974164924,0.0,-0.949392121579927]},{"bufferView":26,"componentType":5126,"count":297,"type":"VEC2"},{"bufferView":27,"componentType":5125,"count":1536,"type":"SCALAR"}],"extensionsUsed":["KHR_materials_transmission","KHR_materials_ior","KHR_materials_volume"]}