<svg width="301" height="205" viewBox="0 0 301 205" fill="none" xmlns="http://www.w3.org/2000/svg">
<path d="M161 90.6499L170.111 90.3032V117.998H176.884V90.3032L186 90.6499V86.9976H161V90.6499Z" fill="#213033"/>
<path d="M254 86.9976V117.998H260.659V90.3032L271 90.6499V86.9976H254Z" fill="#213033"/>
<path d="M81.6721 108.598V86.9976H75V117.998H78.5399L95.3279 96.3968V117.998H102V86.9976H98.4553L81.6721 108.598Z" fill="#213033"/>
<path d="M161 99.0185C161 99.0185 158.527 99.142 155.221 99.8687L150.408 86.9976H144.197L132 117.998H135.39C138.957 111.415 148.249 105.05 154.156 103.341C154.598 103.212 154.764 103.531 154.298 103.797C148.671 107.017 143.073 110.907 140.537 114.754C143.156 114.511 146.802 113.714 150.383 111.396C157.075 107.059 161 99.0233 161 99.0233V99.0185ZM145.139 103.816C143.049 105.169 141.444 106.746 140.228 108.275H140.208L145.492 93.6564H145.693L148.642 101.958C147.44 102.481 146.252 103.098 145.139 103.816Z" fill="#213033"/>
<path d="M152 111.835L154.17 117.998H162L157.92 106.998C156.03 109.285 153.414 111 152 111.835Z" fill="#213033"/>
<path d="M203.002 85.9976C194.239 85.9976 187 92.4476 187 102.498C187 112.548 193.076 118.998 203.002 118.998C211.766 118.998 219 112.235 219 102.498C219 92.76 212.924 85.9976 203.002 85.9976ZM203.002 116.128C197.067 116.128 194.301 110.024 194.301 102.502C194.301 94.9805 197.631 88.8765 203.002 88.8765C208.938 88.8765 211.699 94.9853 211.699 102.502C211.699 110.019 208.374 116.128 203.002 116.128Z" fill="#213033"/>
<path d="M59.6978 86.9976L49.5 107.686L39.9389 86.9976H34.9518L31 117.998H34.7622L37.3141 97.1805L46.1072 116.843H48.8244L58.8472 96.4348L61.2338 117.998H68L64.5586 86.9976H59.6978Z" fill="#213033"/>
<path d="M234.876 87.0023H225V117.998H231.97V107.373C232.782 107.463 233.799 107.525 235.032 107.525C243.175 107.525 248 102.837 248 97.1995C248 90.8827 243.104 86.9976 234.876 86.9976V87.0023ZM233.443 104.704C232.942 104.704 232.441 104.67 231.97 104.632V89.833H233.443C238.885 89.833 240.985 93.0627 240.985 97.1995C240.985 101.336 238.885 104.699 233.443 104.699V104.704Z" fill="#213033"/>
<path d="M119.876 87.0023H110V117.998H116.97V107.373C117.787 107.463 118.799 107.525 120.032 107.525C128.175 107.525 133 102.837 133 97.1995C133 90.8827 128.104 86.9976 119.876 86.9976V87.0023ZM118.438 104.704C117.937 104.704 117.441 104.67 116.97 104.632V89.833H118.438C123.885 89.833 125.985 93.0627 125.985 97.1995C125.985 101.336 123.885 104.699 118.438 104.699V104.704Z" fill="#213033"/>
</svg>
