<svg width="301" height="205" viewBox="0 0 301 205" fill="none" xmlns="http://www.w3.org/2000/svg">
<g clip-path="url(#clip0_1441_6078)">
<path d="M51.1807 108.244H57.7843L60.7912 101.738H70.6377L73.6447 108.244H80.3072L65.7439 78L51.1807 108.244ZM69.3405 97.1077H62.1473L65.7439 88.9019L69.3405 97.1077Z" fill="#213033"/>
<path d="M46.523 79.7002L38.5633 97.8114L30.6625 79.7002H24L38.5633 109.944L53.1265 79.7002H46.523Z" fill="#213033"/>
<path d="M101.474 94.5284C100.767 93.825 100 93.2389 99.1158 92.77C98.2314 92.3011 97.347 91.8908 96.4036 91.5392C94.9296 91.0703 93.7504 90.5427 92.807 90.0738C91.8636 89.6049 91.1561 89.0774 90.6844 88.5499C90.2127 88.0224 89.9769 87.3777 89.9769 86.6743C89.9769 85.971 90.2717 85.3262 90.8613 84.7987C91.4509 84.2712 92.2764 83.9782 93.4556 83.9782C94.34 83.9782 95.1065 84.154 95.814 84.5057C96.5215 84.8573 97.1111 85.2676 97.6418 85.8537C98.1724 86.4399 98.6441 87.026 98.9979 87.7293L103.597 85.209C103.125 84.2126 102.418 83.2162 101.533 82.2784C100.649 81.3406 99.5285 80.5786 98.2314 79.9339C96.9342 79.3478 95.3423 78.9961 93.5145 78.9961C91.7457 78.9961 90.1538 79.2892 88.6798 79.9339C87.2647 80.5786 86.0855 81.4578 85.26 82.6887C84.4346 83.8609 84.0219 85.2676 84.0219 86.9088C84.0219 88.2569 84.2577 89.4291 84.7884 90.4255C85.319 91.3633 85.9676 92.1839 86.7341 92.8872C87.5005 93.532 88.385 94.1181 89.2694 94.5284C90.1538 94.9387 90.9203 95.2904 91.6278 95.5248C92.9249 95.9937 93.9862 96.4626 94.8706 96.8729C95.755 97.2832 96.4036 97.7521 96.8753 98.3382C97.347 98.8657 97.5239 99.6277 97.5239 100.507C97.5239 101.562 97.1701 102.382 96.4036 102.969C95.6371 103.555 94.6937 103.848 93.5145 103.848C92.5122 103.848 91.5688 103.613 90.6844 103.203C89.8 102.793 89.0335 102.148 88.267 101.386C87.5595 100.624 86.852 99.6863 86.2624 98.6313L82.0762 101.562C82.7247 102.91 83.5502 104.141 84.7294 105.254C85.8497 106.368 87.1468 107.306 88.6798 107.951C90.2127 108.595 91.8047 108.947 93.5735 108.947C94.8706 108.947 96.1678 108.771 97.347 108.361C98.5262 107.951 99.5875 107.423 100.59 106.661C101.533 105.899 102.3 105.02 102.83 103.906C103.361 102.793 103.656 101.562 103.656 100.214C103.656 98.9829 103.479 97.9279 103.066 96.9901C102.712 96.0523 102.182 95.2317 101.474 94.5284Z" fill="#213033"/>
<path d="M117.512 79.7002H111.557V108.244H117.512V79.7002Z" fill="#213033"/>
<path d="M132.252 79.7002H126.415V108.244H143.691V103.145H132.252V79.7002Z" fill="#213033"/>
<path d="M162.203 79.1133C160.022 79.1133 157.958 79.465 156.13 80.1683C154.244 80.8717 152.652 81.8681 151.237 83.2162C149.881 84.5642 148.76 86.1468 148.053 87.9051C147.286 89.7221 146.933 91.715 146.933 93.9422C146.933 96.1695 147.286 98.1623 148.053 99.9793C148.819 101.796 149.881 103.379 151.237 104.668C152.593 106.016 154.244 107.013 156.13 107.716C158.017 108.42 160.022 108.771 162.203 108.771C164.326 108.771 166.036 108.537 167.451 108.009C168.807 107.482 170.104 106.778 171.283 105.841V99.276C170.635 99.9793 169.927 100.624 169.043 101.21C168.158 101.796 167.215 102.265 166.154 102.617C165.092 102.969 163.854 103.144 162.498 103.144C160.847 103.144 159.314 102.793 157.958 102.031C156.543 101.269 155.423 100.214 154.597 98.8071C153.713 97.4004 153.3 95.7592 153.3 93.8836C153.3 92.008 153.713 90.3083 154.597 88.9602C155.482 87.5535 156.602 86.4984 157.958 85.7365C159.373 84.9745 160.847 84.6229 162.498 84.6229C163.854 84.6229 165.092 84.7987 166.154 85.1504C167.215 85.502 168.158 85.9709 169.043 86.5571C169.927 87.1432 170.635 87.7879 171.283 88.4913V82.0439C170.104 81.1061 168.807 80.4028 167.451 79.8752C166.036 79.3477 164.326 79.1133 162.203 79.1133Z" fill="#213033"/>
<path d="M197.933 90.4263H184.549V79.7002H178.653V108.244H184.549V95.6428H197.933V108.244H203.83V79.7002H197.933V90.4263Z" fill="#213033"/>
<path d="M227.945 98.4562C227.945 100.097 227.533 101.387 226.648 102.383C225.764 103.38 224.526 103.849 222.816 103.849C221.106 103.849 219.868 103.38 218.983 102.383C218.099 101.387 217.686 100.097 217.686 98.4562V79.7002H211.79V98.8665C211.79 100.566 212.085 102.032 212.615 103.321C213.146 104.61 213.913 105.666 214.915 106.545C215.917 107.424 217.038 108.069 218.394 108.538C219.75 109.006 221.224 109.241 222.757 109.241C224.29 109.241 225.764 109.006 227.12 108.538C228.476 108.069 229.655 107.424 230.598 106.545C231.601 105.666 232.367 104.61 232.898 103.321C233.429 102.032 233.723 100.566 233.723 98.8665V79.7002H227.827V98.4562H227.945Z" fill="#213033"/>
<path d="M265.267 79.7002H258.309L248.05 91.2468V79.7002H242.036V108.244H248.05V95.2911L258.722 108.244H265.856L253.357 93.0638L265.267 79.7002Z" fill="#213033"/>
<path d="M277 79.7002H271.045V108.244H277V79.7002Z" fill="#213033"/>
<path d="M78.1845 123.19C78.6562 122.956 79.0099 122.663 79.2458 122.252C79.4816 121.842 79.5996 121.373 79.5996 120.846C79.5996 120.318 79.4816 119.849 79.2458 119.439C79.0099 119.029 78.6562 118.736 78.1845 118.501C77.7128 118.267 77.1232 118.149 76.4746 118.149H75.3544H74.7058H73.6445V126.531H75.3544V123.483H76.1209L78.0666 126.531H80.1302L77.8307 123.249C77.8897 123.249 78.0666 123.249 78.1845 123.19ZM75.3544 119.673H76.3567C76.6515 119.673 76.9463 119.732 77.1232 119.849C77.3591 119.966 77.5359 120.084 77.6539 120.259C77.7718 120.435 77.8307 120.67 77.8307 120.963C77.8307 121.256 77.7718 121.432 77.6539 121.666C77.5359 121.901 77.3591 122.018 77.1232 122.076C76.8874 122.194 76.6515 122.252 76.3567 122.252H75.3544V119.673Z" fill="#213033"/>
<path d="M84.6115 118.208H83.4912V126.59H84.6115H85.2011H88.9156V125.124H85.2011V122.838H88.6208V121.432H85.2011V119.615H88.9156V118.208H85.2011H84.6115Z" fill="#213033"/>
<path d="M97.7003 122.545C97.5234 122.37 97.2875 122.194 96.9927 122.018C96.6979 121.842 96.4621 121.725 96.2262 121.666C95.8135 121.549 95.4598 121.373 95.1649 121.256C94.8701 121.139 94.6933 120.963 94.5164 120.787C94.3985 120.611 94.3395 120.435 94.3395 120.26C94.3395 120.025 94.3985 119.849 94.5753 119.732C94.7522 119.556 94.9881 119.498 95.3418 119.498C95.5777 119.498 95.8135 119.556 96.0494 119.673C96.2262 119.791 96.4031 119.908 96.58 120.084C96.7569 120.26 96.8748 120.435 96.9927 120.611L98.3488 119.849C98.2309 119.556 97.9951 119.263 97.7592 118.97C97.5234 118.677 97.1696 118.443 96.7569 118.267C96.3442 118.091 95.9314 117.974 95.3418 117.974C94.8112 117.974 94.3395 118.091 93.9268 118.267C93.5141 118.443 93.1603 118.736 92.9244 119.087C92.6886 119.439 92.5707 119.849 92.5707 120.318C92.5707 120.728 92.6296 121.08 92.8065 121.315C92.9834 121.608 93.1603 121.842 93.3961 122.018C93.632 122.194 93.8678 122.37 94.1626 122.487C94.3985 122.604 94.6343 122.721 94.8701 122.78C95.2239 122.897 95.5777 123.073 95.8135 123.19C96.0494 123.307 96.2852 123.483 96.4031 123.6C96.521 123.776 96.58 123.952 96.58 124.245C96.58 124.538 96.4621 124.773 96.2262 124.949C95.9904 125.124 95.7546 125.242 95.4008 125.242C95.106 125.242 94.8112 125.183 94.5753 125.066C94.3395 124.949 94.1037 124.773 93.8678 124.538C93.632 124.304 93.4551 124.011 93.2782 123.718L92.04 124.597C92.2169 125.007 92.4528 125.359 92.8065 125.71C93.1603 126.062 93.5141 126.297 93.9857 126.531C94.4574 126.707 94.9291 126.824 95.4008 126.824C95.8135 126.824 96.1673 126.766 96.521 126.648C96.8748 126.531 97.1696 126.355 97.4644 126.121C97.7592 125.886 97.9951 125.652 98.113 125.3C98.2309 124.949 98.3488 124.597 98.3488 124.187C98.3488 123.835 98.2899 123.483 98.1719 123.249C98.113 123.014 97.9361 122.78 97.7003 122.545Z" fill="#213033"/>
<path d="M101.356 119.732H103.597V126.59H105.366V119.732H107.606V118.208H101.356V119.732Z" fill="#213033"/>
<path d="M108.903 126.59H110.849L111.733 124.656H114.622L115.507 126.59H117.453L113.148 117.681L108.903 126.59ZM114.21 123.307H112.087L113.148 120.904L114.21 123.307Z" fill="#213033"/>
<path d="M124.115 123.718C124.115 124.186 123.997 124.597 123.761 124.89C123.525 125.183 123.113 125.3 122.641 125.3C122.169 125.3 121.756 125.183 121.521 124.89C121.285 124.597 121.167 124.186 121.167 123.718V118.208H119.457V123.835C119.457 124.304 119.516 124.773 119.693 125.124C119.87 125.476 120.106 125.828 120.341 126.062C120.636 126.297 120.99 126.531 121.344 126.648C121.757 126.765 122.169 126.824 122.641 126.824C123.113 126.824 123.525 126.765 123.938 126.648C124.351 126.531 124.705 126.297 124.999 126.062C125.294 125.828 125.53 125.476 125.707 125.124C125.884 124.773 125.943 124.304 125.943 123.835V118.208H124.233V123.718H124.115Z" fill="#213033"/>
<path d="M134.551 123.19C135.022 122.956 135.376 122.663 135.612 122.252C135.848 121.842 135.966 121.373 135.966 120.846C135.966 120.318 135.848 119.849 135.612 119.439C135.376 119.029 135.022 118.736 134.551 118.501C134.079 118.267 133.489 118.149 132.841 118.149H131.721H131.072H130.011V126.531H131.721V123.483H132.487L134.433 126.531H136.496L134.197 123.249C134.256 123.249 134.433 123.249 134.551 123.19ZM131.721 119.673H132.723C133.018 119.673 133.313 119.732 133.489 119.849C133.725 119.966 133.902 120.084 134.02 120.259C134.138 120.435 134.197 120.67 134.197 120.963C134.197 121.256 134.138 121.432 134.02 121.666C133.902 121.842 133.725 122.018 133.489 122.076C133.254 122.194 133.018 122.252 132.723 122.252H131.721V119.673Z" fill="#213033"/>
<path d="M138.973 126.59H140.918L141.803 124.656H144.692L145.576 126.59H147.522L143.218 117.681L138.973 126.59ZM144.279 123.307H142.157L143.218 120.904L144.279 123.307Z" fill="#213033"/>
<path d="M155.953 123.366L149.939 117.739V126.59H151.59V121.373L157.604 127V118.208H155.953V123.366Z" fill="#213033"/>
<path d="M161.024 119.732H163.265V126.59H165.034V119.732H167.274V118.208H161.024V119.732Z" fill="#213033"/>
<path d="M180.835 123.483H183.252C183.193 123.718 183.075 123.952 182.957 124.187C182.839 124.421 182.662 124.597 182.427 124.773C182.25 124.948 182.014 125.066 181.719 125.183C181.424 125.3 181.129 125.3 180.776 125.3C180.245 125.3 179.773 125.183 179.361 124.948C178.948 124.714 178.594 124.362 178.358 123.952C178.122 123.542 178.005 123.014 178.005 122.428C178.005 121.842 178.122 121.315 178.358 120.904C178.594 120.494 178.948 120.142 179.361 119.908C179.773 119.673 180.245 119.556 180.776 119.556C181.306 119.556 181.778 119.673 182.132 119.908C182.486 120.142 182.78 120.435 183.016 120.787L184.49 119.908C184.254 119.498 183.901 119.204 183.547 118.911C183.193 118.618 182.78 118.384 182.309 118.267C181.837 118.091 181.306 118.032 180.776 118.032C180.127 118.032 179.538 118.149 178.948 118.325C178.417 118.56 177.887 118.853 177.474 119.204C177.061 119.556 176.766 120.025 176.531 120.611C176.295 121.139 176.177 121.725 176.177 122.37C176.177 123.014 176.295 123.6 176.531 124.128C176.766 124.655 177.061 125.124 177.474 125.535C177.887 125.945 178.358 126.238 178.889 126.472C179.42 126.707 180.068 126.824 180.717 126.824C181.424 126.824 182.014 126.707 182.544 126.472C183.075 126.238 183.547 125.886 183.901 125.417C184.254 125.007 184.549 124.48 184.726 123.893C184.903 123.307 184.962 122.721 184.962 122.076H180.835V123.483Z" fill="#213033"/>
<path d="M193.335 123.19C193.807 122.956 194.16 122.663 194.396 122.252C194.632 121.842 194.75 121.373 194.75 120.846C194.75 120.318 194.632 119.849 194.396 119.439C194.16 119.029 193.807 118.736 193.335 118.501C192.863 118.267 192.274 118.149 191.625 118.149H190.505H189.856H188.795V126.531H190.505V123.483H191.271L193.217 126.531H195.281L192.981 123.249C193.099 123.249 193.217 123.249 193.335 123.19ZM190.505 119.673H191.507C191.802 119.673 192.097 119.732 192.274 119.849C192.509 119.966 192.686 120.084 192.804 120.259C192.922 120.435 192.981 120.67 192.981 120.963C192.981 121.256 192.922 121.432 192.804 121.666C192.686 121.842 192.509 122.018 192.274 122.076C192.038 122.194 191.802 122.252 191.507 122.252H190.505V119.673Z" fill="#213033"/>
<path d="M205.834 119.263C205.421 118.853 204.949 118.56 204.419 118.384C203.888 118.149 203.299 118.091 202.65 118.091C202.001 118.091 201.412 118.208 200.881 118.384C200.35 118.618 199.879 118.911 199.466 119.263C199.053 119.673 198.759 120.142 198.523 120.67C198.287 121.197 198.169 121.783 198.169 122.428C198.169 123.073 198.287 123.659 198.523 124.187C198.759 124.714 199.053 125.183 199.466 125.593C199.879 126.003 200.35 126.297 200.881 126.531C201.412 126.765 202.001 126.883 202.65 126.883C203.299 126.883 203.888 126.765 204.419 126.531C204.949 126.297 205.421 126.003 205.834 125.593C206.247 125.183 206.541 124.714 206.777 124.187C207.013 123.659 207.131 123.073 207.131 122.428C207.131 121.783 207.013 121.197 206.777 120.67C206.6 120.084 206.247 119.615 205.834 119.263ZM204.949 123.835C204.714 124.245 204.419 124.597 204.006 124.831C203.593 125.066 203.181 125.183 202.65 125.183C202.119 125.183 201.648 125.066 201.294 124.831C200.881 124.597 200.586 124.245 200.35 123.835C200.115 123.425 199.997 122.956 199.997 122.428C199.997 121.901 200.115 121.432 200.35 121.021C200.586 120.611 200.881 120.259 201.294 120.025C201.707 119.791 202.119 119.673 202.65 119.673C203.181 119.673 203.652 119.791 204.065 120.025C204.478 120.259 204.773 120.611 205.008 121.021C205.244 121.432 205.362 121.901 205.362 122.428C205.303 122.897 205.185 123.366 204.949 123.835Z" fill="#213033"/>
<path d="M215.563 123.718C215.563 124.186 215.445 124.597 215.209 124.89C214.974 125.183 214.561 125.3 214.089 125.3C213.617 125.3 213.205 125.183 212.969 124.89C212.733 124.597 212.615 124.186 212.615 123.718V118.208H210.905V123.835C210.905 124.304 210.964 124.773 211.141 125.124C211.318 125.476 211.554 125.828 211.79 126.062C212.084 126.297 212.438 126.531 212.792 126.648C213.205 126.765 213.617 126.824 214.089 126.824C214.561 126.824 214.974 126.765 215.386 126.648C215.799 126.531 216.153 126.297 216.448 126.062C216.742 125.828 216.978 125.476 217.155 125.124C217.332 124.773 217.391 124.304 217.391 123.835V118.208H215.681V123.718H215.563Z" fill="#213033"/>
<path d="M226.942 119.439C226.706 119.029 226.353 118.736 225.881 118.501C225.409 118.267 224.82 118.149 224.171 118.149H223.169H222.52H221.459V126.531H223.169V123.483H224.171C224.82 123.483 225.409 123.366 225.881 123.19C226.353 122.956 226.706 122.663 226.942 122.252C227.178 121.842 227.296 121.373 227.296 120.846C227.355 120.318 227.237 119.849 226.942 119.439ZM225.291 121.783C225.056 122.018 224.643 122.076 224.23 122.076H223.228V119.615H224.23C224.702 119.615 225.056 119.732 225.291 119.908C225.586 120.084 225.704 120.435 225.704 120.846C225.645 121.256 225.527 121.549 225.291 121.783Z" fill="#213033"/>
</g>
<defs>
<clipPath id="clip0_1441_6078">
<rect width="253" height="49" fill="white" transform="translate(24 78)"/>
</clipPath>
</defs>
</svg>
